<?xml version="1.0" standalone="no"?>
<!DOCTYPE svg PUBLIC "-//W3C//DTD SVG 20010904//EN"
 "http://www.w3.org/TR/2001/REC-SVG-20010904/DTD/svg10.dtd">
<svg version="1.0" xmlns="http://www.w3.org/2000/svg"
 width="512.000000pt" height="512.000000pt" viewBox="0 0 512.000000 512.000000"
 preserveAspectRatio="xMidYMid meet">

<g transform="translate(0.000000,512.000000) scale(0.100000,-0.100000)"
fill="#000000" stroke="none">
<path d="M2325 4680 c-444 -59 -809 -216 -1135 -488 -390 -326 -650 -784 -737
-1298 -27 -165 -25 -526 5 -689 115 -632 463 -1141 1009 -1474 487 -297 1115
-380 1677 -221 698 197 1262 757 1462 1452 64 223 78 334 78 598 0 200 -3 253
-22 357 -165 906 -842 1583 -1742 1744 -131 24 -475 34 -595 19z m396 -421
c741 -75 1339 -603 1505 -1329 175 -764 -218 -1570 -930 -1909 -474 -225
-1004 -224 -1483 5 -186 89 -398 250 -534 407 -567 655 -567 1599 0 2254 351
405 910 627 1442 572z"/>
<path d="M1920 2560 l0 -850 215 0 215 0 0 850 0 850 -215 0 -215 0 0 -850z"/>
<path d="M2770 2560 l0 -850 215 0 215 0 0 850 0 850 -215 0 -215 0 0 -850z"/>
</g>
</svg>
