<?xml version="1.0" standalone="no"?>
<!DOCTYPE svg PUBLIC "-//W3C//DTD SVG 20010904//EN"
 "http://www.w3.org/TR/2001/REC-SVG-20010904/DTD/svg10.dtd">
<svg version="1.0" xmlns="http://www.w3.org/2000/svg"
 width="512.000000pt" height="512.000000pt" viewBox="0 0 512.000000 512.000000"
 preserveAspectRatio="xMidYMid meet">

<g transform="translate(0.000000,512.000000) scale(0.100000,-0.100000)"
fill="#000000" stroke="none">
<path d="M2360 4840 c-716 -75 -1322 -437 -1708 -1020 -185 -279 -306 -598
-358 -945 -24 -163 -25 -466 -1 -625 79 -519 293 -947 651 -1305 357 -357 794
-575 1306 -652 157 -23 462 -23 624 1 761 111 1392 567 1735 1254 159 318 235
644 235 1012 0 223 -17 359 -69 566 -229 897 -978 1569 -1896 1699 -138 19
-402 27 -519 15z m485 -376 c667 -97 1240 -548 1498 -1179 97 -236 140 -459
139 -725 0 -316 -60 -576 -199 -855 -244 -493 -686 -856 -1223 -1005 -211 -58
-540 -81 -750 -51 -779 109 -1410 664 -1610 1415 -47 175 -63 300 -63 496 1
202 17 328 68 513 167 610 640 1110 1240 1312 157 52 312 83 505 99 76 6 290
-4 395 -20z"/>
<path d="M1920 3561 c-83 -26 -142 -75 -182 -151 l-23 -45 0 -805 0 -805 25
-48 c45 -88 133 -146 236 -155 74 -6 115 6 214 63 729 418 1232 713 1258 738
59 56 86 121 86 207 0 61 -5 84 -26 125 -48 92 22 47 -1182 742 -110 63 -217
121 -239 129 -42 15 -126 17 -167 5z"/>
</g>
</svg>
