<?xml version="1.0" encoding="utf-8"?><svg viewBox="0 0 24 24" xmlns="http://www.w3.org/2000/svg" xmlns:xlink="http://www.w3.org/1999/xlink"><style>:root>svg{display:none}:root>svg:target{display:block}</style><svg fill="none" viewBox="0 0 24 24" id="mix" xmlns="http://www.w3.org/2000/svg"><path d="M3 18.332h2.795c1.09 0 2.113-.526 2.746-1.413l.96-1.343m10.801-9.104h-2.794c-1.09 0-2.113.526-2.747 1.413l-1.073 1.503M18.654 4 21 6.472l-2.346 2.472m0 6.972L21 18.389l-2.346 2.472M3 6.853h2.795c1.09 0 2.113.527 2.746 1.414l6.22 8.708a3.375 3.375 0 0 0 2.747 1.413h2.794" stroke="#000" stroke-width="2" stroke-linecap="round" stroke-linejoin="round"/></svg><svg fill="none" viewBox="0 0 24 24" id="next-arrow" xmlns="http://www.w3.org/2000/svg"><path d="m10.081 11.519-6.52-6.52a.68.68 0 0 0-1.161.48v13.04a.68.68 0 0 0 1.161.482l6.52-6.52a.68.68 0 0 0 0-.962ZM21.4 11.519l-6.52-6.52a.68.68 0 0 0-1.16.48v13.04a.68.68 0 0 0 1.16.482l6.52-6.52a.68.68 0 0 0 0-.962Z" stroke="#000" stroke-width="2" stroke-linecap="round" stroke-linejoin="round"/></svg><svg fill="none" viewBox="0 0 24 24" id="pause" xmlns="http://www.w3.org/2000/svg"><path d="M9.6 15.6V8.4m4.8 7.2V8.4M6 21.6h12a3.6 3.6 0 0 0 3.6-3.6V6A3.6 3.6 0 0 0 18 2.4H6A3.6 3.6 0 0 0 2.4 6v12A3.6 3.6 0 0 0 6 21.6Z" stroke="#000" stroke-width="2" stroke-linecap="round" stroke-linejoin="round"/></svg><svg fill="none" viewBox="0 0 24 24" id="play" xmlns="http://www.w3.org/2000/svg"><path d="m15.6 12.81-.546-.839-.014.01-.014.009.573.82Zm0-1.377-.594.805.045.033.048.028.5-.866Zm-5.516-4.061.593-.805-.028-.021-.03-.019-.535.845Zm-1.156.606 1-.002V7.958l-1 .02Zm.023 7.978-1 .003v.028l.002.029.998-.06Zm1.198.665.485.875.046-.025.043-.03-.574-.82ZM6 3.4h12v-2H6v2ZM20.6 6v12h2V6h-2ZM18 20.6H6v2h12v-2ZM3.4 18V6h-2v12h2ZM6 20.6A2.6 2.6 0 0 1 3.4 18h-2A4.6 4.6 0 0 0 6 22.6v-2ZM20.6 18a2.6 2.6 0 0 1-2.6 2.6v2a4.6 4.6 0 0 0 4.6-4.6h-2ZM18 3.4A2.6 2.6 0 0 1 20.6 6h2A4.6 4.6 0 0 0 18 1.4v2Zm-12-2A4.6 4.6 0 0 0 1.4 6h2A2.6 2.6 0 0 1 6 3.4v-2Zm10.146 12.247c.434-.282.983-.787.982-1.547 0-.783-.578-1.273-1.027-1.533L15.099 12.3c.105.06.124.092.11.073a.452.452 0 0 1-.082-.27c0-.143.056-.228.065-.24.004-.005-.027.037-.138.11l1.09 1.675Zm.047-3.02-5.515-4.06-1.186 1.61 5.515 4.061 1.186-1.61Zm-5.573-4.1c-.47-.298-1.131-.469-1.756-.177-.68.318-.948 1.002-.935 1.649l2-.04c-.002-.06.01-.04-.02.018a.434.434 0 0 1-.2.185c-.185.087-.26-.01-.16.055l1.071-1.69ZM7.928 7.981l.023 7.978 2-.006-.023-7.977-2 .005Zm.025 8.035c.031.534.217 1.246.888 1.604.66.353 1.347.123 1.793-.124l-.969-1.75c-.099.055-.138.058-.122.056a.42.42 0 0 1 .24.054.43.43 0 0 1 .185.179c.008.017-.012-.017-.019-.138l-1.996.119Zm2.77 1.425 5.45-3.812-1.147-1.64-5.45 3.813 1.147 1.639Z" fill="#000"/></svg><svg fill="none" viewBox="0 0 24 24" id="prev-arrow" xmlns="http://www.w3.org/2000/svg"><path d="m13.919 12.48 6.52 6.52a.68.68 0 0 0 1.16-.48V5.48a.68.68 0 0 0-1.16-.481l-6.52 6.52a.68.68 0 0 0 0 .962ZM2.6 12.48 9.12 19a.68.68 0 0 0 1.16-.48V5.48a.68.68 0 0 0-1.16-.481l-6.52 6.52a.68.68 0 0 0 0 .962Z" stroke="#000" stroke-width="2" stroke-linecap="round" stroke-linejoin="round"/></svg><svg fill="none" viewBox="0 0 24 24" id="repeat" xmlns="http://www.w3.org/2000/svg"><path d="M6 19.2a3.6 3.6 0 0 1-3.6-3.6V8.4A3.6 3.6 0 0 1 6 4.8h5.4m4.8 0H18a3.6 3.6 0 0 1 3.6 3.6v7.2a3.6 3.6 0 0 1-3.6 3.6h-7.8m0 0 2.4-2.4m-2.4 2.4 2.4 2.4M10.2 7.2l2.4-2.4-2.4-2.4" stroke="#000" stroke-width="2" stroke-linecap="round" stroke-linejoin="round"/></svg></svg>