<?xml version="1.0" standalone="no"?><svg viewBox="0 0 682.667 682.667" xmlns="http://www.w3.org/2000/svg" xmlns:xlink="http://www.w3.org/1999/xlink"><style>:root>svg{display:none}:root>svg:target{display:block}</style><svg version="1.0" viewBox="0 0 512 512" id="next-arrow" xmlns="http://www.w3.org/2000/svg"><path d="M140 2.2c-4.4 1.7-7.7 4.4-17.1 13.7-14.4 14.3-16.3 17.7-16.4 28.6 0 5.8.5 9.1 1.9 12 1.3 2.7 33.3 35.5 99.5 101.8l97.6 97.7-97.7 97.8c-76 76-98.2 98.7-99.7 102.2-1.4 3-2.1 6.7-2.1 11 0 10.3 2.9 15.3 16.8 29.1 9.8 9.7 12.7 11.9 17.5 13.7 7.3 2.8 13.1 2.8 20.4.1 5.6-2 10.8-7.1 123-119.3C413.4 261 406 269.2 406 256c0-13.2 7.4-5-122.3-134.6C171.4 9.1 166.3 4.1 160.7 2.1c-7.2-2.6-13.6-2.6-20.7.1z"/></svg><svg version="1.0" viewBox="0 0 512 512" id="pause" xmlns="http://www.w3.org/2000/svg"><path d="M232.5 44c-44.4 5.9-80.9 21.6-113.5 48.8-39 32.6-65 78.4-73.7 129.8-2.7 16.5-2.5 52.6.5 68.9 11.5 63.2 46.3 114.1 100.9 147.4 48.7 29.7 111.5 38 167.7 22.1 69.8-19.7 126.2-75.7 146.2-145.2 6.4-22.3 7.8-33.4 7.8-59.8 0-20-.3-25.3-2.2-35.7C449.7 129.7 382 62 292 45.9c-13.1-2.4-47.5-3.4-59.5-1.9zm39.6 42.1C346.2 93.6 406 146.4 422.6 219c17.5 76.4-21.8 157-93 190.9-47.4 22.5-100.4 22.4-148.3-.5-18.6-8.9-39.8-25-53.4-40.7-56.7-65.5-56.7-159.9 0-225.4 35.1-40.5 91-62.7 144.2-57.2z"/><path d="M192 256v85h43V171h-43v85zM277 256v85h43V171h-43v85z"/></svg><svg version="1.0" viewBox="0 0 512 512" id="play" xmlns="http://www.w3.org/2000/svg"><path d="M236 28c-71.6 7.5-132.2 43.7-170.8 102-18.5 27.9-30.6 59.8-35.8 94.5-2.4 16.3-2.5 46.6-.1 62.5 7.9 51.9 29.3 94.7 65.1 130.5 35.7 35.7 79.4 57.5 130.6 65.2 15.7 2.3 46.2 2.3 62.4-.1 76.1-11.1 139.2-56.7 173.5-125.4 15.9-31.8 23.5-64.4 23.5-101.2 0-22.3-1.7-35.9-6.9-56.6-22.9-89.7-97.8-156.9-189.6-169.9-13.8-1.9-40.2-2.7-51.9-1.5zm48.5 37.6c66.7 9.7 124 54.8 149.8 117.9 9.7 23.6 14 45.9 13.9 72.5 0 31.6-6 57.6-19.9 85.5-24.4 49.3-68.6 85.6-122.3 100.5-21.1 5.8-54 8.1-75 5.1-77.9-10.9-141-66.4-161-141.5-4.7-17.5-6.3-30-6.3-49.6.1-20.2 1.7-32.8 6.8-51.3 16.7-61 64-111 124-131.2 15.7-5.2 31.2-8.3 50.5-9.9 7.6-.6 29 .4 39.5 2z"/><path d="M192 155.9c-8.3 2.6-14.2 7.5-18.2 15.1l-2.3 4.5v161l2.5 4.8c4.5 8.8 13.3 14.6 23.6 15.5 7.4.6 11.5-.6 21.4-6.3 72.9-41.8 123.2-71.3 125.8-73.8 5.9-5.6 8.6-12.1 8.6-20.7 0-6.1-.5-8.4-2.6-12.5-4.8-9.2 2.2-4.7-118.2-74.2-11-6.3-21.7-12.1-23.9-12.9-4.2-1.5-12.6-1.7-16.7-.5z"/></svg><svg version="1.0" viewBox="0 0 512 512" id="prev-arrow" xmlns="http://www.w3.org/2000/svg"><path d="M356.9 1.3c-2.5.7-6.5 2.5-9 3.9-6.3 3.8-231.2 229.2-233.7 234.4-1.1 2.2-2.6 6.8-3.3 10.2-1.6 7.5-.2 16 3.7 23.3 1.7 3.1 39.4 41.4 117.2 119.1C360.8 521 350 511.4 366 511.4c7.2 0 9.4-.4 14.7-2.8 18.4-8.4 26.2-30.8 17.1-49.1-1.3-2.6-36.8-38.8-101.6-103.8L196.5 256l99.7-99.8C361 91.3 396.5 55.1 397.8 52.5c11.5-23.3-3.9-50.4-29.5-52.1-4-.2-8.7.2-11.4.9z"/></svg></svg>