<?xml version="1.0" standalone="no"?><svg viewBox="0 0 1138.667 205.3" xmlns="http://www.w3.org/2000/svg" xmlns:xlink="http://www.w3.org/1999/xlink"><style>:root>svg{display:none}:root>svg:target{display:block}</style><svg version="1.0" viewBox="0 0 854 144" id="logo" xmlns="http://www.w3.org/2000/svg"><path d="M3.7 5.7c-1.3 1.2-.8 38.8.5 40.1 1.6 1.6 70 1.7 72.9.2 1.8-1 1.9-2.3 1.9-19.5 0-10.1-.3-19-.6-19.9C77.9 5.2 73.6 5 41.1 5 20.9 5 4 5.3 3.7 5.7zm69.1 20 .3 14.3H9V11l31.8.2 31.7.3.3 14.2z"/><path d="M11.5 15.4c-1.1.8-1.6 1.9-1.2 3 1 2.5 3.6 3 5.6 1.2 1.6-1.5 1.9-1.5 2.4-.1.9 2.2 16.9 2.2 18.8-.1.9-1.1 1-2 .2-3.2-1.3-2.1-15.1-2.9-18.4-1.1-1.5.8-2.4.8-3.2 0-1.4-1.4-1.9-1.4-4.2.3zM84 7.1c-.7 1.3-1 8.3-.8 20 .2 14.6.6 18.2 1.8 18.9 2.1 1.4 70.6 1.3 73.1 0 1.8-1 1.9-2.3 1.9-19.5 0-10.1-.3-19-.6-19.9-.5-1.4-4.8-1.6-37.5-1.6C85.8 5 85 5 84 7.1zm69 18.4V40H90V11h63v14.5z"/><path d="M92.8 15.1c-2.2 1.2-2.3 3.2-.2 5 1.3 1 1.9 1 3.6 0 1.5-.9 2.3-1 3.1-.2.6.6 4.7 1.1 9.3 1.1 9.1 0 11.4-1.2 9.4-4.9-.9-1.8-2-2.1-8.8-2.1-5.2 0-8.4.5-9.9 1.5-1.9 1.3-2.2 1.3-2.7 0-.6-1.7-1.4-1.8-3.8-.4zM165.2 6.2c-1.5 1.5-1.7 36-.2 38.9 1 1.7 2.3 1.9 15.6 1.9 8.1 0 15.4-.5 16.5-1 1.8-1 1.9-2.3 1.9-19.5 0-10.1-.3-19-.6-19.9-.5-1.4-2.9-1.6-16.3-1.6-10.9 0-16.1.4-16.9 1.2zm27.6 19.5.3 14.3H171V29.5c0-10.2.1-10.5 1.9-9.3 1.6 1 2.3.9 3.9-.5 1.8-1.6 2-1.6 2.6-.2.8 2.1 5.5 1.6 7-.7.8-1.4.7-2.2-.7-3.5-1.5-1.5-2.2-1.6-4.9-.5-2.2.8-3.5.8-4.4.1-.9-.7-1.9-.7-3.3.1-1.9.9-2.1.8-2.1-1.5v-2.6l10.8.3 10.7.3.3 14.2zM407.8 17.5c-.2.3-5.4 1.8-11.6 3.4-12.5 3.3-13.8 3.9-12.4 5.3.7.7 2.7.6 6.1-.2 8.6-2 8.1-5.1 8.1 46.9 0 34.2-.3 46-1.2 46.9-.7.7-2.8 1.2-4.7 1.2-4.4 0-7 1.5-5.5 3 .7.7 7.3 1 19 .8 15.1-.3 17.9-.5 17.9-1.8 0-1.1-1.4-1.6-5-1.8-2.7-.2-5.5-.8-6.2-1.4-1-.8-1.3-11.9-1.3-51.9 0-41.8-.2-50.9-1.3-50.9-.8 0-1.6.2-1.9.5zM281.2 23.7c.3 1.5 1.4 1.8 5.6 1.8 4.2 0 5.7.4 6.8 1.9 1.2 1.6 1.4 9.6 1.4 46.2 0 50.3.5 47.4-8.1 47.4-4.2 0-5 .3-4.7 1.7.3 1.5 2.3 1.7 19.8 1.7 16.7.1 19.5-.1 19.5-1.4 0-1-1.2-1.6-4-1.8-9.3-.6-8.5 1.6-8.5-23.1V76.2l2.4-1.6c2.5-1.6 2.5-1.6 12.8 11.7 5.7 7.2 14.3 18.5 19.1 24.9 4.7 6.4 9.5 12.2 10.6 12.8 3.2 1.7 24.6.9 24.6-.9 0-.8-2-2-4.6-2.7-4.1-1.2-5.9-2.8-15.5-14.1-6-7-16.2-19.2-22.7-27.3L324 64.5l16.2-15.8c20.2-19.6 21.7-20.7 28.1-22.2 3.4-.8 5.3-1.7 5.5-2.8.3-1.5-.7-1.7-8.2-1.7-9.7 0-8.1-1-19.3 12.1-3.9 4.6-14 15.1-22.2 23.4l-15.1 15V49.8c0-16.9.3-22.9 1.2-23.4.7-.5 3.3-.8 5.8-.9 3.4 0 4.5-.4 4.8-1.8.3-1.6-1.2-1.7-19.8-1.7s-20.1.1-19.8 1.7zM679.2 31.9l-6.2 5.6V55h-6.4c-4.9 0-6.5.4-7 1.6-1.1 2.9-.6 3.2 5.9 2.6l6.5-.5v25.1c0 28.3.7 33.6 5.1 37.8 2.6 2.5 3.9 2.9 10.4 3.2 6.3.4 8.2 0 13-2.2 3.5-1.6 5.5-3.1 5.2-3.8-.2-.7-1.1-1.1-1.8-.9-.8.1-4 .5-7.1.8-4.3.4-6.4.2-8.3-1.1L686 116V59h9.5c8.8 0 9.5-.1 9.5-2 0-2.3.2-2.3-10.8-2l-8.4.2.3-14.1c.2-7.7.1-14.2-.2-14.5-.2-.2-3.2 2.1-6.7 5.3zM462 50.5c-10.7 3-20.1 10.9-24.1 20.2-4.5 10.6-4.3 25.3.5 35.9 7.7 16.8 29.8 23.5 48.4 14.7 6.4-3 14.2-10.3 14.2-13.3 0-2.8-.7-2.6-6 2.4-7 6.5-12.2 8.9-21.1 9.4-11.6.7-17.3-2.9-22.5-14.2-2.2-4.8-2.8-7.9-3.2-15.8l-.5-9.8h25c28.5 0 26.7.6 25.2-8.9-1.3-8.4-7.7-16.4-15.6-19.7-5.2-2.2-14.1-2.6-20.3-.9zm16.6 4c3.1 2 5.2 7.2 6 14.8l.7 6.7H449l.6-2.8c.9-4.2 6.1-14.6 8.3-16.6 4.9-4.4 15.4-5.5 20.7-2.1zM538.9 50.3c-10.7 3.1-19 10.4-24.3 21.6-2.8 5.9-3.1 7.5-3.1 16.1 0 8.6.3 10.1 3.1 16 13.5 28.1 53.3 28.5 66.9.6 2.2-4.5 3-7.7 3.3-13.8 1.1-18.5-6-31.9-20.3-38.4-6.5-3-18.8-4-25.6-2.1zm18 4.7c9.5 4.8 13.5 14.7 13.5 33-.1 23.8-6.7 33.6-22.4 33.4-15.8-.1-23-10.4-23-32.9 0-16.8 4.4-28.6 12.5-33.2 5.2-3 14-3.1 19.4-.3zM613.2 50.9c-5.6 1.9-10.5 5.8-12.8 10.3-2 3.8-1.7 11.2.5 15.7 2.5 4.9 6.3 7.7 18.7 13.9 5.5 2.8 11.5 6.2 13.2 7.7 6.7 5.7 6 16.5-1.3 20-1.9.8-6 1.5-9.7 1.5-9 0-14.5-3.6-18.8-12-2.8-5.6-5.3-7.5-6.2-4.8-.2.6.6 4.7 1.9 9.1 1.3 4.3 2.3 8.5 2.3 9.2 0 .8 2.7 1.7 7.5 2.4 25.1 3.7 41.5-3.5 41.5-18.2 0-10.9-4.8-15.4-27.1-25.5-11.8-5.4-14.5-9.5-12.5-18.9 1.8-8.1 12.4-10.9 21.4-5.7 3.6 2.1 5 3.8 7.4 9.1 2.1 4.8 3.3 6.3 4.6 6.1 1.4-.3 1.7-1.4 1.5-5.8-.4-9.5-1.1-12-3.6-12-1.2 0-5.1-.9-8.5-2-7.8-2.5-13.1-2.5-20-.1zM752.2 51.6c-5 2.5-11.6 9-15 14.6-.9 1.6-2 2.8-2.4 2.8-.4 0-.8-4.1-.8-9 0-7.1-.3-9.2-1.5-9.6-.8-.4-6.1.3-11.7 1.3-7.4 1.4-10.3 2.3-10.3 3.4 0 1 1 1.3 3.5 1.1 2-.2 4.4.3 5.5 1.2 1.9 1.4 2 2.8 2.3 31.1.2 21.5 0 30.1-.9 31.1-.6.8-3 1.4-5.4 1.4-4 0-7.3 1.9-5.8 3.3.3.4 8.9.7 19 .7 17.6 0 18.3-.1 18.3-2 0-1.7-.7-2-4.8-2-2.6 0-5.3-.5-6-1.2-.9-.9-1.2-7.2-1.2-22 0-20.5.1-21 2.6-26 1.4-2.8 4.8-7.3 7.5-10 4.4-4.4 5.3-4.9 8.6-4.6 3.3.3 4.1.9 6.1 4.5 2.5 4.5 5 5.5 7.2 2.8 1.4-1.7.8-10.1-1-13.5-1.5-2.9-7.4-2.6-13.8.6zM803.9 50.3c-10.7 3.1-19 10.4-24.3 21.6-2.8 5.9-3.1 7.5-3.1 16.1 0 8.6.3 10.1 3.1 16 13.5 28.1 53.3 28.5 66.9.6 2.2-4.5 3-7.7 3.3-13.8 1.1-18.5-6-31.9-20.3-38.4-6.5-3-18.8-4-25.6-2.1zm18 4.7c9.5 4.8 13.5 14.7 13.5 33-.1 23.8-6.7 33.6-22.4 33.4-15.8-.1-23-10.4-23-32.9 0-16.8 4.4-28.6 12.5-33.2 5.2-3 14-3.1 19.4-.3zM4.2 52.8c-.9.7-1.2 5.5-1 20.8l.3 19.9 16.5.3c14.6.2 16.6.1 17.7-1.5 1.6-2.1 1.8-35.5.3-38.4-1-1.8-2.3-1.9-16.8-1.9-8.6 0-16.3.4-17 .8zM32 73.5v14.6l-11.2-.3-11.3-.3-.3-14.3L8.9 59H32v14.5zM44.2 53.2c-1.7 1.7-1.7 37.9 0 39.6 1.4 1.4 71.4 1.7 73.6.4.9-.7 1.2-5.5 1-20.8l-.3-19.9-36.5-.3c-27.6-.2-36.9.1-37.8 1zM113 73.5V88l-31.7-.2-31.8-.3-.3-14.3-.3-14.2H113v14.5z"/><path d="M51.5 63c-.3.6-.3 1.9 0 3 .7 2.2 4.4 2.7 6.2.9.8-.8 1.3-.8 1.7 0 .8 1.3 16.5 1.5 18.4.2.8-.5 1.2-1.7 1-2.7-.3-1.7-1.4-1.9-9.2-2.2-5.3-.2-9.3.2-10.1.8-.9.8-1.5.8-2 0-.8-1.3-5.2-1.3-6 0zM125.2 53.2c-1.7 1.7-1.7 37.9 0 39.6 1.4 1.4 71.4 1.7 73.6.4.9-.7 1.2-5.5 1-20.8l-.3-19.9-36.5-.3c-27.6-.2-36.9.1-37.8 1zM194 73.5V88l-31.7-.2-31.8-.3-.3-14.3-.3-14.2H194v14.5z"/><path d="M133.4 63.5c-1.4 3.6 2.6 6.1 5.3 3.4.8-.8 1.3-.8 1.7 0 1.1 1.8 18.1 1.4 19.6-.4 1-1.2 1-1.8 0-3-1.6-1.9-17.9-2.2-19.8-.3-.9.9-1.2.9-1.2 0 0-1.7-5-1.5-5.6.3zM4.2 99.8c-.9.7-1.2 5.5-1 20.8l.3 19.9 35.5.3c19.5.1 36.5 0 37.8-.3 2.2-.5 2.2-.7 2.2-19.8 0-13.7-.3-19.6-1.2-20.5-1.4-1.4-71.4-1.7-73.6-.4zm68.6 20.4-.3 14.3h-63l-.3-14.3-.3-14.2h64.2l-.3 14.2z"/><path d="M11.5 110.4c-1.1.8-1.6 1.9-1.2 3 1 2.5 3.6 3 5.6 1.2 1.6-1.5 1.9-1.5 2.4-.1.9 2.2 16.9 2.2 18.8-.1.9-1.1 1-2 .2-3.2-1.3-2.1-15.1-2.9-18.4-1.1-1.5.8-2.4.8-3.2 0-1.4-1.4-1.9-1.4-4.2.3zM84.6 100.6c-1.3 1.3-1.6 4.5-1.6 19 0 10.2.4 18.3 1 19.5 1 1.8 2.5 1.9 37.3 1.9 26.9 0 36.6-.3 37.5-1.2 1.7-1.7 1.7-37.9 0-39.6-.9-.9-10.5-1.2-36.9-1.2-31.2 0-36 .2-37.3 1.6zm68.4 19.9V135H90v-29h63v14.5z"/><path d="M93.3 109.7c-1.8.7-1.6 5 .2 5.7 1.9.7 4.5-.3 4.5-1.7 0-.5.8-.3 1.8.6 1.4 1.3 3.8 1.7 9.3 1.7 8.5 0 10.2-.8 9.7-4.1-.3-2.3-.7-2.4-8.5-2.7-4.6-.1-9.2.2-10.2.8-1.3.7-2.2.7-2.6 0-.7-1.1-2.2-1.2-4.2-.3zM165.8 100.1c-1.6.9-1.8 2.9-1.8 19 0 10.5.4 18.8 1 20 1 1.7 2.3 1.9 16.3 1.9 10.6 0 15.7-.4 16.5-1.2 1.7-1.7 1.7-37.9 0-39.6-1.5-1.5-29.5-1.6-32-.1zm27 20.1-.3 14.3-10.7.3-10.8.3v-10.6c0-10.2.1-10.5 1.9-9.3 1.6 1 2.3.9 3.9-.5 1.8-1.6 2-1.6 2.6-.2.8 2.1 5.5 1.6 7-.7.8-1.4.7-2.2-.7-3.5-1.5-1.5-2.2-1.6-4.9-.5-2.2.8-3.5.8-4.4.1-.9-.7-1.9-.7-3.3.1-1.9.9-2.1.8-2.1-1.5V106h22.1l-.3 14.2z"/></svg><svg fill="none" viewBox="0 0 24 24" id="mix" xmlns="http://www.w3.org/2000/svg"><path d="M3 18.332h2.795c1.09 0 2.113-.526 2.746-1.413l.96-1.343m10.801-9.104h-2.794c-1.09 0-2.113.526-2.747 1.413l-1.073 1.503M18.654 4 21 6.472l-2.346 2.472m0 6.972L21 18.389l-2.346 2.472M3 6.853h2.795c1.09 0 2.113.527 2.746 1.414l6.22 8.708a3.375 3.375 0 0 0 2.747 1.413h2.794" stroke="#000" stroke-width="2" stroke-linecap="round" stroke-linejoin="round"/></svg><svg fill="none" viewBox="0 0 24 24" id="next-arrow" xmlns="http://www.w3.org/2000/svg"><path d="m10.081 11.519-6.52-6.52a.68.68 0 0 0-1.161.48v13.04a.68.68 0 0 0 1.161.482l6.52-6.52a.68.68 0 0 0 0-.962ZM21.4 11.519l-6.52-6.52a.68.68 0 0 0-1.16.48v13.04a.68.68 0 0 0 1.16.482l6.52-6.52a.68.68 0 0 0 0-.962Z" stroke="#000" stroke-width="2" stroke-linecap="round" stroke-linejoin="round"/></svg><svg fill="none" viewBox="0 0 24 24" id="pause" xmlns="http://www.w3.org/2000/svg"><path d="M9.6 15.6V8.4m4.8 7.2V8.4M6 21.6h12a3.6 3.6 0 0 0 3.6-3.6V6A3.6 3.6 0 0 0 18 2.4H6A3.6 3.6 0 0 0 2.4 6v12A3.6 3.6 0 0 0 6 21.6Z" stroke="#000" stroke-width="2" stroke-linecap="round" stroke-linejoin="round"/></svg><svg fill="none" viewBox="0 0 24 24" id="play" xmlns="http://www.w3.org/2000/svg"><path d="m15.6 12.81-.546-.839-.014.01-.014.009.573.82Zm0-1.377-.594.805.045.033.048.028.5-.866Zm-5.516-4.061.593-.805-.028-.021-.03-.019-.535.845Zm-1.156.606 1-.002V7.958l-1 .02Zm.023 7.978-1 .003v.028l.002.029.998-.06Zm1.198.665.485.875.046-.025.043-.03-.574-.82ZM6 3.4h12v-2H6v2ZM20.6 6v12h2V6h-2ZM18 20.6H6v2h12v-2ZM3.4 18V6h-2v12h2ZM6 20.6A2.6 2.6 0 0 1 3.4 18h-2A4.6 4.6 0 0 0 6 22.6v-2ZM20.6 18a2.6 2.6 0 0 1-2.6 2.6v2a4.6 4.6 0 0 0 4.6-4.6h-2ZM18 3.4A2.6 2.6 0 0 1 20.6 6h2A4.6 4.6 0 0 0 18 1.4v2Zm-12-2A4.6 4.6 0 0 0 1.4 6h2A2.6 2.6 0 0 1 6 3.4v-2Zm10.146 12.247c.434-.282.983-.787.982-1.547 0-.783-.578-1.273-1.027-1.533L15.099 12.3c.105.06.124.092.11.073a.452.452 0 0 1-.082-.27c0-.143.056-.228.065-.24.004-.005-.027.037-.138.11l1.09 1.675Zm.047-3.02-5.515-4.06-1.186 1.61 5.515 4.061 1.186-1.61Zm-5.573-4.1c-.47-.298-1.131-.469-1.756-.177-.68.318-.948 1.002-.935 1.649l2-.04c-.002-.06.01-.04-.02.018a.434.434 0 0 1-.2.185c-.185.087-.26-.01-.16.055l1.071-1.69ZM7.928 7.981l.023 7.978 2-.006-.023-7.977-2 .005Zm.025 8.035c.031.534.217 1.246.888 1.604.66.353 1.347.123 1.793-.124l-.969-1.75c-.099.055-.138.058-.122.056a.42.42 0 0 1 .24.054.43.43 0 0 1 .185.179c.008.017-.012-.017-.019-.138l-1.996.119Zm2.77 1.425 5.45-3.812-1.147-1.64-5.45 3.813 1.147 1.639Z" fill="#000"/></svg><svg fill="none" viewBox="0 0 24 24" id="prev-arrow" xmlns="http://www.w3.org/2000/svg"><path d="m13.919 12.48 6.52 6.52a.68.68 0 0 0 1.16-.48V5.48a.68.68 0 0 0-1.16-.481l-6.52 6.52a.68.68 0 0 0 0 .962ZM2.6 12.48 9.12 19a.68.68 0 0 0 1.16-.48V5.48a.68.68 0 0 0-1.16-.481l-6.52 6.52a.68.68 0 0 0 0 .962Z" stroke="#000" stroke-width="2" stroke-linecap="round" stroke-linejoin="round"/></svg><svg fill="none" viewBox="0 0 24 24" id="repeat" xmlns="http://www.w3.org/2000/svg"><path d="M6 19.2a3.6 3.6 0 0 1-3.6-3.6V8.4A3.6 3.6 0 0 1 6 4.8h5.4m4.8 0H18a3.6 3.6 0 0 1 3.6 3.6v7.2a3.6 3.6 0 0 1-3.6 3.6h-7.8m0 0 2.4-2.4m-2.4 2.4 2.4 2.4M10.2 7.2l2.4-2.4-2.4-2.4" stroke="#000" stroke-width="2" stroke-linecap="round" stroke-linejoin="round"/></svg><svg id="rs_school_js" viewBox="0 0 552.8 205.3" xmlns="http://www.w3.org/2000/svg"><style>.hst0{fill:#fff}.hst5,.hst7{fill:#fff;stroke:#000;stroke-width:4;stroke-miterlimit:10}.hst7{fill:none}</style><path d="m285.4 68 26.3-1.7c.6 4.3 1.7 7.5 3.5 9.8 2.9 3.6 6.9 5.4 12.2 5.4 3.9 0 7-.9 9.1-2.8 2-1.5 3.2-3.9 3.2-6.4 0-2.4-1.1-4.7-3-6.2-2-1.8-6.7-3.6-14.1-5.2-12.1-2.7-20.8-6.3-25.9-10.9-5.1-4.3-8-10.6-7.8-17.3 0-4.6 1.4-9.2 4-13 3-4.3 7.1-7.7 12-9.6 5.3-2.3 12.7-3.5 22-3.5 11.4 0 20.1 2.1 26.1 6.4 6 4.2 9.6 11 10.7 20.3l-26 1.5c-.7-4-2.1-6.9-4.4-8.8s-5.3-2.8-9.2-2.8c-3.2 0-5.6.7-7.2 2-1.5 1.2-2.5 3-2.4 5 0 1.5.8 2.9 2 3.8 1.3 1.2 4.4 2.3 9.3 3.3 12.1 2.6 20.7 5.2 26 7.9 5.3 2.7 9.1 6 11.4 9.9 2.4 4 3.6 8.6 3.5 13.3 0 5.6-1.6 11.2-4.8 15.9-3.3 4.9-7.9 8.7-13.3 11-5.7 2.5-12.9 3.8-21.5 3.8-15.2 0-25.7-2.9-31.6-8.8S286.1 77 285.4 68zM6.3 97.6V8.2h46.1c8.5 0 15.1.7 19.6 2.2 4.4 1.4 8.3 4.3 10.9 8.2 2.9 4.3 4.3 9.3 4.2 14.5.3 8.8-4.2 17.2-11.9 21.6-3 1.7-6.3 2.9-9.7 3.5 2.5.7 5 1.9 7.2 3.3 1.7 1.4 3.1 3 4.4 4.7 1.5 1.7 2.8 3.6 3.9 5.6l13.4 25.9H63L48.2 70.2c-1.9-3.5-3.5-5.8-5-6.9-2-1.4-4.4-2.1-6.8-2.1H34v36.3H6.3zM34 44.4h11.7c2.5-.2 4.9-.6 7.3-1.2 1.8-.3 3.4-1.3 4.5-2.8 2.7-3.6 2.3-8.7-1-11.8-1.8-1.5-5.3-2.3-10.3-2.3H34v18.1zM0 174.2l26.3-1.7c.6 4.3 1.7 7.5 3.5 9.8 2.8 3.6 6.9 5.5 12.2 5.5 3.9 0 7-.9 9.1-2.8 2-1.6 3.2-3.9 3.2-6.4 0-2.4-1.1-4.7-3-6.2-2-1.8-6.7-3.6-14.2-5.2-12.1-2.7-20.8-6.3-25.9-10.9-5.1-4.3-8-10.6-7.8-17.3 0-4.6 1.4-9.2 4-13 3-4.3 7.1-7.7 12-9.6 5.3-2.3 12.7-3.5 22-3.5 11.4 0 20.1 2.1 26.1 6.4s9.5 11 10.6 20.3l-26 1.5c-.7-4-2.1-6.9-4.4-8.8-2.2-1.9-5.3-2.8-9.2-2.7-3.2 0-5.6.7-7.2 2.1-1.6 1.2-2.5 3-2.4 5 0 1.5.8 2.9 2 3.8 1.3 1.2 4.4 2.3 9.3 3.3 12.1 2.6 20.7 5.2 26 7.9 5.3 2.7 9.1 6 11.4 9.9 2.4 4 3.6 8.6 3.6 13.2 0 5.6-1.7 11.1-4.8 15.8-3.3 4.9-7.9 8.7-13.3 11-5.7 2.5-12.9 3.8-21.5 3.8-15.2 0-25.7-2.9-31.6-8.8-5.9-6-9.2-13.4-10-22.4z"/><path d="m133 167.2 24.2 7.3c-1.3 6.1-4 11.9-7.7 17-3.4 4.5-7.9 8-13 10.3-5.2 2.3-11.8 3.5-19.8 3.5-9.7 0-17.7-1.4-23.8-4.2-6.2-2.8-11.5-7.8-16-14.9-4.5-7.1-6.7-16.2-6.7-27.3 0-14.8 3.9-26.2 11.8-34.1s19-11.9 33.4-11.9c11.3 0 20.1 2.3 26.6 6.8 6.4 4.6 11.2 11.6 14.4 21l-24.4 5.4c-.6-2.1-1.5-4.2-2.7-6-1.5-2.1-3.4-3.7-5.7-4.9-2.3-1.2-4.9-1.7-7.5-1.7-6.3 0-11.1 2.5-14.4 7.6-2.5 3.7-3.8 9.6-3.8 17.6 0 9.9 1.5 16.7 4.5 20.4 3 3.7 7.2 5.5 12.7 5.5 5.3 0 9.3-1.5 12-4.4 2.7-3.1 4.7-7.4 5.9-13zm56.5-52.8h27.6v31.3h30.2v-31.3h27.8v89.4h-27.8v-36.2h-30.2v36.2h-27.6v-89.4z"/><path d="M271.3 159.1c0-14.6 4.1-26 12.2-34.1 8.1-8.1 19.5-12.2 34-12.2 14.9 0 26.3 4 34.4 12S364 144 364 158.4c0 10.5-1.8 19-5.3 25.7-3.4 6.6-8.7 12-15.2 15.6-6.7 3.7-15 5.6-24.9 5.6-10.1 0-18.4-1.6-25-4.8-6.8-3.4-12.4-8.7-16.1-15.2-4.1-7-6.2-15.7-6.2-26.2zm27.6.1c0 9 1.7 15.5 5 19.5 3.3 3.9 7.9 5.9 13.7 5.9 5.9 0 10.5-1.9 13.8-5.8s4.9-10.8 4.9-20.8c0-8.4-1.7-14.6-5.1-18.4-3.4-3.9-8-5.8-13.8-5.8-5.1-.2-10 2-13.4 5.9-3.4 3.9-5.1 10.4-5.1 19.5zm93.4-.1c0-14.6 4.1-26 12.2-34.1 8.1-8.1 19.5-12.2 34-12.2 14.9 0 26.4 4 34.4 12S485 144 485 158.4c0 10.5-1.8 19-5.3 25.7-3.4 6.6-8.7 12-15.2 15.6-6.7 3.7-15 5.6-24.9 5.6-10.1 0-18.4-1.6-25-4.8-6.8-3.4-12.4-8.7-16.1-15.2-4.1-7-6.2-15.7-6.2-26.2zm27.6.1c0 9 1.7 15.5 5 19.5 3.3 3.9 7.9 5.9 13.7 5.9 5.9 0 10.5-1.9 13.8-5.8 3.3-3.9 4.9-10.8 4.9-20.8 0-8.4-1.7-14.6-5.1-18.4-3.4-3.9-8-5.8-13.8-5.8-5.1-.2-10.1 2-13.4 5.9-3.4 3.9-5.1 10.4-5.1 19.5z"/><path d="M482.1 114.4h27.6v67.4h43.1v22H482v-89.4z"/><ellipse transform="rotate(-37.001 420.46 67.88)" class="hst0" cx="420.5" cy="67.9" rx="63" ry="51.8"/><defs><ellipse id="hSVGID_1_" transform="rotate(-37.001 420.46 67.88)" cx="420.5" cy="67.9" rx="63" ry="51.8"/></defs><clipPath id="hSVGID_2_"><use xlink:href="#hSVGID_1_" overflow="visible"/></clipPath><g style="clip-path:url(#hSVGID_2_)"><path transform="rotate(-37.001 420.82 68.353)" class="hst0" d="M330.9-14.2h179.8v165.1H330.9z"/><g id="hLayer_2_1_"><defs><path id="hSVGID_3_" transform="rotate(-37.001 420.82 68.353)" d="M330.9-14.2h179.8v165.1H330.9z"/></defs><clipPath id="hSVGID_4_"><use xlink:href="#hSVGID_3_" overflow="visible"/></clipPath><g id="hLayer_1-2" style="clip-path:url(#hSVGID_4_)"><ellipse transform="rotate(-37.001 420.46 67.88)" class="hst0" cx="420.5" cy="67.9" rx="63" ry="51.8"/><defs><ellipse id="hSVGID_5_" transform="rotate(-37.001 420.46 67.88)" cx="420.5" cy="67.9" rx="63" ry="51.8"/></defs><clipPath id="hSVGID_6_"><use xlink:href="#hSVGID_5_" overflow="visible"/></clipPath><g style="clip-path:url(#hSVGID_6_)"><path transform="rotate(-37 420.799 68.802)" class="hst0" d="M357.8 17h125.9v103.7H357.8z"/><defs><path id="hSVGID_7_" transform="rotate(-37 420.799 68.802)" d="M357.8 17h125.9v103.7H357.8z"/></defs><clipPath id="hSVGID_8_"><use xlink:href="#hSVGID_7_" overflow="visible"/></clipPath><ellipse transform="rotate(-37.001 420.46 67.88)" class="hst5" cx="420.5" cy="67.9" rx="63" ry="51.8" style="clip-path:url(#hSVGID_8_)"/><path transform="rotate(-37 420.799 68.802)" d="M357.8 17h125.9v103.7H357.8z" style="fill:none;stroke:#000;stroke-width:4;stroke-miterlimit:10;clip-path:url(#hSVGID_8_)"/><ellipse transform="rotate(-37.001 420.46 67.88)" class="hst7" cx="420.5" cy="67.9" rx="63" ry="51.8"/><path transform="rotate(-37 420.799 68.802)" class="hst0" d="M357.8 17h125.9v103.7H357.8z"/><defs><path id="hSVGID_9_" transform="rotate(-37 420.799 68.802)" d="M357.8 17h125.9v103.7H357.8z"/></defs><clipPath id="hSVGID_10_"><use xlink:href="#hSVGID_9_" overflow="visible"/></clipPath><ellipse transform="rotate(-37.001 420.46 67.88)" class="hst5" cx="420.5" cy="67.9" rx="63" ry="51.8" style="clip-path:url(#hSVGID_10_)"/><path transform="rotate(-37 420.799 68.802)" d="M357.8 17h125.9v103.7H357.8z" style="fill:none;stroke:#000;stroke-width:4;stroke-miterlimit:10;clip-path:url(#hSVGID_10_)"/><path transform="rotate(-37.001 420.82 68.353)" class="hst7" d="M330.9-14.2h179.8v165.1H330.9z"/></g><ellipse transform="rotate(-37.001 420.46 67.88)" class="hst7" cx="420.5" cy="67.9" rx="63" ry="51.8"/><path d="m392.4 61.3 10-7 12.3 17.5c2.1 2.8 3.7 5.8 4.9 9.1.7 2.5.5 5.2-.5 7.6-1.3 3-3.4 5.5-6.2 7.3-3.3 2.3-6.1 3.6-8.5 4-2.3.4-4.7 0-6.9-1-2.4-1.2-4.5-2.9-6.1-5.1l8.6-8c.7 1.1 1.6 2.1 2.6 2.9.7.5 1.5.8 2.4.8.7 0 1.4-.3 1.9-.7 1-.6 1.7-1.8 1.6-3-.3-1.7-1-3.4-2.1-4.7l-14-19.7zm30 11.1 9.1-7.2c1 1.2 2.3 2.1 3.7 2.6 2 .6 4.1.2 5.8-1.1 1.2-.8 2.2-1.9 2.6-3.3.6-1.8-.4-3.8-2.2-4.4-.3-.1-.6-.2-.9-.2-1.2-.1-3.3.4-6.4 1.7-5.1 2.1-9.1 2.9-12.1 2.6-2.9-.3-5.6-1.8-7.2-4.3-1.2-1.7-1.8-3.7-1.9-5.7 0-2.3.6-4.6 1.9-6.5 1.9-2.7 4.2-5 7-6.8 4.2-2.9 7.9-4.3 11.1-4.3 3.2 0 6.2 1.5 9 4.6l-9 7.1c-1.8-2.3-5.2-2.8-7.5-1l-.3.3c-1 .6-1.7 1.5-2.1 2.6-.3.8-.1 1.7.4 2.4.4.5 1 .9 1.7.9.8.1 2.2-.3 4.2-1.2 5-2.1 8.8-3.3 11.4-3.7 2.2-.4 4.5-.2 6.6.7 1.9.8 3.5 2.2 4.6 3.9 1.4 2 2.2 4.4 2.3 6.9.1 2.6-.6 5.1-2 7.3-1.8 2.7-4.1 5-6.8 6.8-5.5 3.8-10 5.4-13.6 4.8-3.9-.6-7.1-2.6-9.4-5.5z"/></g></g></g></svg></svg>